<?xml version="1.0" encoding="UTF-8" standalone="no"?>
<!-- Created with Inkscape (http://www.inkscape.org/) -->

<svg
   xmlns:dc="http://purl.org/dc/elements/1.1/"
   xmlns:cc="http://creativecommons.org/ns#"
   xmlns:rdf="http://www.w3.org/1999/02/22-rdf-syntax-ns#"
   xmlns:svg="http://www.w3.org/2000/svg"
   xmlns="http://www.w3.org/2000/svg"
   xmlns:sodipodi="http://sodipodi.sourceforge.net/DTD/sodipodi-0.dtd"
   xmlns:inkscape="http://www.inkscape.org/namespaces/inkscape"
   width="64"
   height="64"
   viewBox="0 0 16.933333 16.933334"
   version="1.1"
   id="svg5042"
   inkscape:version="0.92.1 r"
   sodipodi:docname="pisaIcon.svg"
   inkscape:export-filename="/home/younglee/Projects/PISA/gui/rsc/icon.png"
   inkscape:export-xdpi="96"
   inkscape:export-ydpi="96">
  <defs
     id="defs5036" />
  <sodipodi:namedview
     id="base"
     pagecolor="#ffffff"
     bordercolor="#666666"
     borderopacity="1.0"
     inkscape:pageopacity="0.0"
     inkscape:pageshadow="2"
     inkscape:zoom="8.5610115"
     inkscape:cx="65.990374"
     inkscape:cy="21.127032"
     inkscape:document-units="mm"
     inkscape:current-layer="layer1"
     showgrid="false"
     inkscape:window-width="1920"
     inkscape:window-height="1051"
     inkscape:window-x="0"
     inkscape:window-y="0"
     inkscape:window-maximized="1"
     units="px"
     showguides="false" />
  <metadata
     id="metadata5039">
    <rdf:RDF>
      <cc:Work
         rdf:about="">
        <dc:format>image/svg+xml</dc:format>
        <dc:type
           rdf:resource="http://purl.org/dc/dcmitype/StillImage" />
        <dc:title />
      </cc:Work>
    </rdf:RDF>
  </metadata>
  <g
     inkscape:label="Layer 1"
     inkscape:groupmode="layer"
     id="layer1"
     transform="translate(0,-280.06665)">
    <rect
       style="fill:#00b8ff;fill-opacity:0.98907101;stroke:none;stroke-width:0.26499999;stroke-miterlimit:4;stroke-dasharray:none;stroke-opacity:1"
       id="rect5615"
       width="20.62393"
       height="17.722765"
       x="-0.76969701"
       y="279.75089" />
    <g
       id="g4568"
       transform="rotate(14.154016,8.7963328,294.19161)">
      <rect
         transform="rotate(0.19890454)"
         y="283.84103"
         x="8.2329187"
         height="13.933489"
         width="4.5195026"
         id="rect5589"
         style="fill:#ffffff;fill-opacity:0.96721311;stroke:none;stroke-width:0.26499999;stroke-miterlimit:4;stroke-dasharray:none;stroke-opacity:1" />
      <rect
         y="281.7442"
         x="7.9140639"
         height="2.6051283"
         width="3.1182597"
         id="rect5621"
         style="fill:#ffffff;fill-opacity:1;stroke:none;stroke-width:0.26499999;stroke-miterlimit:4;stroke-dasharray:none;stroke-opacity:1" />
      <ellipse
         ry="0.33753204"
         rx="2.2597377"
         cy="283.8873"
         cx="9.5072432"
         id="path5623"
         style="fill:#fdfefd;fill-opacity:0.96721311;stroke:none;stroke-width:0.23578908;stroke-miterlimit:4;stroke-dasharray:none;stroke-opacity:1" />
      <ellipse
         ry="0.3453733"
         rx="1.5591297"
         cy="281.81067"
         cx="9.4731932"
         id="path5653"
         style="fill:#ffffff;fill-opacity:1;stroke:none;stroke-width:0.17751348;stroke-miterlimit:4;stroke-dasharray:none;stroke-opacity:1" />
      <ellipse
         ry="0.33753204"
         rx="2.2597377"
         cy="295.68652"
         cx="9.457119"
         id="path5623-3"
         style="fill:#fdfefd;fill-opacity:0.96721311;stroke:none;stroke-width:0.23578908;stroke-miterlimit:4;stroke-dasharray:none;stroke-opacity:1" />
      <path
         inkscape:connector-curvature="0"
         id="ellipse4513"
         d="m 9.4953401,283.5653 a 2.2597376,0.33753205 0 0 0 -2.2530924,0.31833 h -0.00672 v 0.0191 0.48111 a 2.2597377,0.33753205 0 0 1 2.2598104,-0.33745 2.2597377,0.33753205 0 0 1 2.2592929,0.33745 2.2597377,0.33753205 0 0 1 -0.0078,0.0222 h 0.02015 v -0.52245 h -0.01654 a 2.2597376,0.33753205 0 0 0 -2.2551589,-0.31833 z m -2.2598104,0.81856 v 0.0222 h 0.00517 a 2.2597377,0.33753205 0 0 1 -0.00517,-0.0222 z"
         style="fill:#464646;fill-opacity:1;stroke:none;stroke-width:0.23578908;stroke-miterlimit:4;stroke-dasharray:none;stroke-opacity:1" />
      <path
         style="fill:#464646;fill-opacity:1;stroke:none;stroke-width:0.23578908;stroke-miterlimit:4;stroke-dasharray:none;stroke-opacity:1"
         d="m 9.4953401,286.36256 a 2.2597376,0.33753205 0 0 0 -2.2530924,0.31833 h -0.00672 v 0.0191 0.48111 a 2.2597377,0.33753205 0 0 1 2.2598104,-0.33745 2.2597377,0.33753205 0 0 1 2.2592929,0.33745 2.2597377,0.33753205 0 0 1 -0.0078,0.0222 h 0.02015 v -0.52245 h -0.01654 a 2.2597376,0.33753205 0 0 0 -2.2551589,-0.31833 z m -2.2598104,0.81856 v 0.0222 h 0.00517 a 2.2597377,0.33753205 0 0 1 -0.00517,-0.0222 z"
         id="path4539"
         inkscape:connector-curvature="0" />
      <path
         inkscape:connector-curvature="0"
         id="path4541"
         d="m 9.4734865,289.0724 a 2.2597376,0.33753205 0 0 0 -2.2530924,0.31833 h -0.00672 v 0.0191 0.48111 a 2.2597377,0.33753205 0 0 1 2.2598104,-0.33745 2.2597377,0.33753205 0 0 1 2.2592925,0.33745 2.2597377,0.33753205 0 0 1 -0.0078,0.0222 h 0.02015 v -0.52245 h -0.01654 a 2.2597376,0.33753205 0 0 0 -2.2551585,-0.31833 z m -2.2598104,0.81856 v 0.0222 h 0.00517 a 2.2597377,0.33753205 0 0 1 -0.00517,-0.0222 z"
         style="fill:#464646;fill-opacity:1;stroke:none;stroke-width:0.23578908;stroke-miterlimit:4;stroke-dasharray:none;stroke-opacity:1" />
      <path
         style="fill:#464646;fill-opacity:1;stroke:none;stroke-width:0.23578908;stroke-miterlimit:4;stroke-dasharray:none;stroke-opacity:1"
         d="m 9.4734865,292.1319 a 2.2597376,0.33753205 0 0 0 -2.2530924,0.31833 h -0.00672 v 0.0191 0.48111 a 2.2597377,0.33753205 0 0 1 2.2598104,-0.33745 2.2597377,0.33753205 0 0 1 2.2592925,0.33745 2.2597377,0.33753205 0 0 1 -0.0078,0.0222 h 0.02015 v -0.52245 h -0.01654 a 2.2597376,0.33753205 0 0 0 -2.2551585,-0.31833 z m -2.2598104,0.81856 v 0.0222 h 0.00517 a 2.2597377,0.33753205 0 0 1 -0.00517,-0.0222 z"
         id="path4543"
         inkscape:connector-curvature="0" />
      <path
         style="fill:#464646;fill-opacity:1;stroke:none;stroke-width:0.18558174;stroke-miterlimit:4;stroke-dasharray:none;stroke-opacity:1"
         d="m 9.4718708,281.45897 a 1.5622712,0.30244033 0 0 0 -1.5576772,0.28523 h -0.00465 v 0.0171 0.43109 a 1.5622713,0.30244033 0 0 1 1.5623218,-0.30237 1.5622713,0.30244033 0 0 1 1.5619636,0.30237 1.5622713,0.30244033 0 0 1 -0.0053,0.0199 h 0.01393 v -0.46813 h -0.01144 a 1.5622712,0.30244033 0 0 0 -1.5591057,-0.28524 z m -1.5623217,0.73346 v 0.0199 h 0.00357 a 1.5622713,0.30244033 0 0 1 -0.00357,-0.0199 z"
         id="path4545"
         inkscape:connector-curvature="0" />
    </g>
    <ellipse
       style="fill:#44cf3a;fill-opacity:0.96721311;stroke:none;stroke-width:0.24117661;stroke-miterlimit:4;stroke-dasharray:none;stroke-opacity:1"
       id="path5617"
       cx="9.4753103"
       cy="297.31998"
       rx="11.545454"
       ry="1.6183372" />
  </g>
</svg>
